<svg width="26" height="26" viewBox="0 0 26 26" fill="none" xmlns="http://www.w3.org/2000/svg">
<path d="M13.1004 6.97703C14.2094 6.97703 15.2629 7.30973 16.261 7.86422C17.2591 8.41872 18.0354 9.19501 18.5899 10.1931C19.1444 11.1912 19.4771 12.2447 19.4771 13.3537C19.4771 14.5182 19.1444 15.5717 18.5899 16.5698C18.0354 17.5679 17.2591 18.3442 16.261 18.8987C15.2629 19.4531 14.2094 19.7304 13.1004 19.7304C11.936 19.7304 10.8824 19.4531 9.88435 18.8987C8.88626 18.3442 8.10997 17.5679 7.55547 16.5698C7.00098 15.5717 6.72373 14.5182 6.72373 13.3537C6.72373 12.2447 7.00098 11.1912 7.55547 10.1931C8.10997 9.19501 8.88626 8.41872 9.88435 7.86422C10.8824 7.30973 11.936 6.97703 13.1004 6.97703ZM13.1004 17.5124C14.2094 17.5124 15.2075 17.1243 16.0392 16.2925C16.8155 15.5162 17.2591 14.5182 17.2591 13.3537C17.2591 12.2447 16.8155 11.2466 16.0392 10.4149C15.2075 9.6386 14.2094 9.19501 13.1004 9.19501C11.936 9.19501 10.9379 9.6386 10.1616 10.4149C9.32986 11.2466 8.94171 12.2447 8.94171 13.3537C8.94171 14.5182 9.32986 15.5162 10.1616 16.2925C10.9379 17.1243 11.936 17.5124 13.1004 17.5124ZM21.2515 6.69979C21.2515 6.31164 21.0851 5.97894 20.8079 5.64625C20.4752 5.369 20.1425 5.20265 19.7543 5.20265C19.3107 5.20265 18.9781 5.369 18.7008 5.64625C18.3681 5.97894 18.2572 6.31164 18.2572 6.69979C18.2572 7.14338 18.3681 7.47608 18.7008 7.75332C18.9781 8.08602 19.3107 8.19692 19.7543 8.19692C20.1425 8.19692 20.4752 8.08602 20.7524 7.75332C21.0297 7.47608 21.196 7.14338 21.2515 6.69979ZM25.4656 8.19692C25.4656 9.25046 25.5211 10.9694 25.5211 13.3537C25.5211 15.7935 25.4656 17.5124 25.4102 18.566C25.3547 19.6195 25.1884 20.5067 24.9666 21.283C24.6339 22.2256 24.0794 23.0574 23.414 23.7228C22.7486 24.3881 21.9169 24.8872 21.0297 25.2199C20.2534 25.4971 19.3107 25.6635 18.2572 25.7189C17.2037 25.7744 15.4847 25.7744 13.1004 25.7744C10.6606 25.7744 8.94171 25.7744 7.88817 25.7189C6.83463 25.6635 5.94744 25.4971 5.17115 25.1644C4.22851 24.8872 3.39677 24.3881 2.73138 23.7228C2.06598 23.0574 1.56694 22.2256 1.23424 21.283C0.956996 20.5067 0.790647 19.6195 0.735198 18.566C0.679749 17.5124 0.679749 15.7935 0.679749 13.3537C0.679749 10.9694 0.679749 9.25046 0.735198 8.19692C0.790647 7.14338 0.956996 6.20074 1.23424 5.42445C1.56694 4.53726 2.06598 3.70552 2.73138 3.04013C3.39677 2.37473 4.22851 1.82024 5.17115 1.48754C5.94744 1.26574 6.83463 1.0994 7.88817 1.04395C8.94171 0.988497 10.6606 0.933048 13.1004 0.933048C15.4847 0.933048 17.2037 0.988497 18.2572 1.04395C19.3107 1.0994 20.2534 1.26574 21.0297 1.48754C21.9169 1.82024 22.7486 2.37473 23.414 3.04013C24.0794 3.70552 24.6339 4.53726 24.9666 5.42445C25.1884 6.20074 25.3547 7.14338 25.4656 8.19692ZM22.8041 20.673C23.0259 20.0631 23.1368 19.065 23.2477 17.6788C23.2477 16.9025 23.3031 15.738 23.3031 14.2409V12.4665C23.3031 10.9694 23.2477 9.80495 23.2477 9.02866C23.1368 7.64243 23.0259 6.64434 22.8041 6.03439C22.3605 4.92541 21.5287 4.09366 20.4197 3.65007C19.8098 3.42827 18.8117 3.31737 17.4255 3.20647C16.5937 3.20647 15.4293 3.15102 13.9876 3.15102H12.2132C10.7161 3.15102 9.55165 3.20647 8.77536 3.20647C7.38913 3.31737 6.39104 3.42827 5.78109 3.65007C4.61666 4.09366 3.84036 4.92541 3.39677 6.03439C3.17497 6.64434 3.00862 7.64243 2.95317 9.02866C2.89772 9.8604 2.89772 11.0248 2.89772 12.4665V14.2409C2.89772 15.738 2.89772 16.9025 2.95317 17.6788C3.00862 19.065 3.17497 20.0631 3.39677 20.673C3.84036 21.8375 4.67211 22.6138 5.78109 23.0574C6.39104 23.2792 7.38913 23.4455 8.77536 23.501C9.55165 23.5564 10.7161 23.5564 12.2132 23.5564H13.9876C15.4847 23.5564 16.6492 23.5564 17.4255 23.501C18.8117 23.4455 19.8098 23.2792 20.4197 23.0574C21.5287 22.6138 22.3605 21.782 22.8041 20.673Z" fill="white"/>
</svg>
