<svg width="26" height="26" viewBox="0 0 26 26" fill="none" xmlns="http://www.w3.org/2000/svg">
<path d="M6.4682 25.7744V9.19501H1.3114V25.7744H6.4682ZM3.91752 6.92158C4.69382 6.92158 5.41466 6.64434 6.0246 6.03439C6.5791 5.4799 6.91179 4.75906 6.91179 3.92732C6.91179 3.15102 6.5791 2.43018 6.0246 1.82024C5.41466 1.26574 4.69382 0.933048 3.91752 0.933048C3.08578 0.933048 2.36494 1.26574 1.81045 1.82024C1.2005 2.43018 0.923256 3.15102 0.923256 3.92732C0.923256 4.75906 1.2005 5.4799 1.81045 6.03439C2.36494 6.64434 3.08578 6.92158 3.91752 6.92158ZM25.7646 25.7744V16.6807C25.7646 14.13 25.3764 12.2447 24.6556 11.0248C23.6575 9.52771 21.994 8.75141 19.6097 8.75141C18.3898 8.75141 17.3917 9.08411 16.5045 9.6386C15.6728 10.1376 15.0629 10.7476 14.7302 11.4684H14.6747V9.19501H9.73971V25.7744H14.8411V17.5679C14.8411 16.2925 15.0074 15.2944 15.3956 14.6291C15.8391 13.7419 16.6709 13.2983 17.8908 13.2983C19.0552 13.2983 19.8315 13.7973 20.2751 14.7954C20.4969 15.4053 20.6078 16.348 20.6078 17.6788V25.7744H25.7646Z" fill="white"/>
</svg>
