<svg width="30" height="24" viewBox="0 0 30 24" fill="none" xmlns="http://www.w3.org/2000/svg">
<path d="M26.3388 6.58698C27.4478 5.75524 28.4459 4.75715 29.2776 3.53726C28.1686 4.0363 27.0597 4.369 25.9507 4.4799C27.1706 3.70361 28.0577 2.65007 28.5013 1.26383C27.3369 1.92923 26.117 2.42827 24.7862 2.65007C24.2317 2.09557 23.5663 1.65198 22.8455 1.31928C22.1247 0.986587 21.3484 0.820238 20.5166 0.820238C19.4631 0.820238 18.5204 1.09749 17.6333 1.59653C16.7461 2.15102 16.0252 2.87187 15.5262 3.75906C14.9717 4.64625 14.7499 5.64434 14.7499 6.64243C14.7499 7.08602 14.7499 7.52962 14.8608 7.97321C12.4765 7.86231 10.2585 7.30782 8.15141 6.19883C6.04433 5.14529 4.3254 3.70361 2.88371 1.87378C2.32922 2.81642 2.05197 3.81451 2.05197 4.8126C2.05197 5.81068 2.27377 6.75332 2.77281 7.58507C3.21641 8.47226 3.8818 9.13765 4.65809 9.69214C3.71545 9.69214 2.82826 9.4149 2.05197 8.91585V9.02675C2.05197 10.413 2.49557 11.6329 3.38276 12.6864C4.26995 13.7954 5.37893 14.4608 6.70972 14.738C6.15523 14.8489 5.65618 14.9044 5.15714 14.9044C4.82444 14.9044 4.4363 14.9044 4.1036 14.8489C4.4363 16.0134 5.10169 16.956 6.09978 17.7323C7.09787 18.5086 8.20685 18.8413 9.53764 18.8413C7.37511 20.5048 4.93534 21.3365 2.27377 21.3365C1.71927 21.3365 1.27568 21.3365 0.887533 21.2811C3.5491 23.0554 6.54337 23.8872 9.81489 23.8872C13.1973 23.8872 16.1916 23.0554 18.8531 21.2811C21.2375 19.7285 23.1227 17.6769 24.4535 15.0153C25.7289 12.5755 26.3943 9.96939 26.3943 7.30782C26.3943 6.97512 26.3388 6.75332 26.3388 6.58698Z" fill="white"/>
</svg>
